<?xml version="1.0" encoding="UTF-8" standalone="no"?>
<!DOCTYPE svg PUBLIC "-//W3C//DTD SVG 1.1//EN"
 "http://www.w3.org/Graphics/SVG/1.1/DTD/svg11.dtd">
<!-- Generated by graphviz version 2.40.1 (20161225.0304)
 -->
<!-- Title: classes_exegis Pages: 1 -->
<svg width="2060pt" height="207pt"
 viewBox="0.00 0.00 2059.50 207.00" xmlns="http://www.w3.org/2000/svg" xmlns:xlink="http://www.w3.org/1999/xlink">
<g id="graph0" class="graph" transform="scale(1 1) rotate(0) translate(4 203)">
<title>classes_exegis</title>
<polygon fill="#ffffff" stroke="transparent" points="-4,4 -4,-203 2055.5,-203 2055.5,4 -4,4"/>
<!-- 0 -->
<g id="node1" class="node">
<title>0</title>
<polygon fill="none" stroke="#000000" points="0,-.5 0,-36.5 261,-36.5 261,-.5 0,-.5"/>
<text text-anchor="middle" x="130.5" y="-14.8" font-family="Times,serif" font-size="14.00" fill="#ff0000">exegis.analysis.AnalysisException</text>
</g>
<!-- 1 -->
<g id="node2" class="node">
<title>1</title>
<polygon fill="none" stroke="#000000" points="279.5,-.5 279.5,-36.5 681.5,-36.5 681.5,-.5 279.5,-.5"/>
<text text-anchor="middle" x="480.5" y="-14.8" font-family="Times,serif" font-size="14.00" fill="#ff0000">exegis.aphorisms_to_xml.AphorismsToXMLException</text>
</g>
<!-- 2 -->
<g id="node3" class="node">
<title>2</title>
<polygon fill="none" stroke="#000000" points="676,-88.5 676,-124.5 933,-124.5 933,-88.5 676,-88.5"/>
<text text-anchor="middle" x="804.5" y="-102.8" font-family="Times,serif" font-size="14.00" fill="#000000">exegis.aphorisms_to_xml.Process</text>
</g>
<!-- 3 -->
<g id="node4" class="node">
<title>3</title>
<polygon fill="none" stroke="#000000" points="391.5,-162.5 391.5,-198.5 579.5,-198.5 579.5,-162.5 391.5,-162.5"/>
<text text-anchor="middle" x="485.5" y="-176.8" font-family="Times,serif" font-size="14.00" fill="#000000">exegis.baseclass.Exegis</text>
</g>
<!-- 2&#45;&gt;3 -->
<g id="edge1" class="edge">
<title>2&#45;&gt;3</title>
<path fill="none" stroke="#000000" d="M726.8717,-124.5078C680.3731,-135.2943 621.1379,-149.0354 572.986,-160.2054"/>
<polygon fill="none" stroke="#000000" points="572.1499,-156.8064 563.1995,-162.4757 573.7318,-163.6253 572.1499,-156.8064"/>
</g>
<!-- 4 -->
<g id="node5" class="node">
<title>4</title>
<polygon fill="none" stroke="#000000" points="927.5,-.5 927.5,-36.5 1187.5,-36.5 1187.5,-.5 927.5,-.5"/>
<text text-anchor="middle" x="1057.5" y="-14.8" font-family="Times,serif" font-size="14.00" fill="#ff0000">exegis.baseclass.ExegisException</text>
</g>
<!-- 5 -->
<g id="node6" class="node">
<title>5</title>
<polygon fill="none" stroke="#000000" points="35.5,-88.5 35.5,-124.5 237.5,-124.5 237.5,-88.5 35.5,-88.5"/>
<text text-anchor="middle" x="136.5" y="-102.8" font-family="Times,serif" font-size="14.00" fill="#000000">exegis.footnotes.Footnote</text>
</g>
<!-- 5&#45;&gt;3 -->
<g id="edge2" class="edge">
<title>5&#45;&gt;3</title>
<path fill="none" stroke="#000000" d="M221.4287,-124.5078C272.5127,-135.3394 337.6476,-149.1502 390.4457,-160.3452"/>
<polygon fill="none" stroke="#000000" points="389.9848,-163.8252 400.4933,-162.4757 391.4368,-156.9775 389.9848,-163.8252"/>
</g>
<!-- 6 -->
<g id="node7" class="node">
<title>6</title>
<polygon fill="none" stroke="#000000" points="700,-.5 700,-36.5 909,-36.5 909,-.5 700,-.5"/>
<text text-anchor="middle" x="804.5" y="-14.8" font-family="Times,serif" font-size="14.00" fill="#000000">exegis.footnotes.Footnotes</text>
</g>
<!-- 6&#45;&gt;2 -->
<g id="edge5" class="edge">
<title>6&#45;&gt;2</title>
<path fill="none" stroke="#000000" d="M804.5,-36.7337C804.5,-48.0609 804.5,-62.9058 804.5,-75.9891"/>
<polygon fill="#000000" stroke="#000000" points="804.5001,-76.2897 808.5,-82.2897 804.5,-88.2897 800.5,-82.2897 804.5001,-76.2897"/>
<text text-anchor="middle" x="855" y="-58.8" font-family="Times,serif" font-size="14.00" fill="#00ff00">footnotes_app</text>
</g>
<!-- 7 -->
<g id="node8" class="node">
<title>7</title>
<polygon fill="none" stroke="#000000" points="1206,-.5 1206,-36.5 1487,-36.5 1487,-.5 1206,-.5"/>
<text text-anchor="middle" x="1346.5" y="-14.8" font-family="Times,serif" font-size="14.00" fill="#ff0000">exegis.footnotes.FootnotesException</text>
</g>
<!-- 8 -->
<g id="node9" class="node">
<title>8</title>
<polygon fill="none" stroke="#000000" points="255.5,-88.5 255.5,-124.5 505.5,-124.5 505.5,-88.5 255.5,-88.5"/>
<text text-anchor="middle" x="380.5" y="-102.8" font-family="Times,serif" font-size="14.00" fill="#000000">exegis.introduction.Introduction</text>
</g>
<!-- 8&#45;&gt;3 -->
<g id="edge3" class="edge">
<title>8&#45;&gt;3</title>
<path fill="none" stroke="#000000" d="M406.1859,-124.6024C419.7875,-134.1883 436.6715,-146.0875 451.3612,-156.4403"/>
<polygon fill="none" stroke="#000000" points="449.5251,-159.4281 459.7154,-162.328 453.5576,-153.7063 449.5251,-159.4281"/>
</g>
<!-- 9 -->
<g id="node10" class="node">
<title>9</title>
<polygon fill="none" stroke="#000000" points="1505.5,-.5 1505.5,-36.5 1827.5,-36.5 1827.5,-.5 1505.5,-.5"/>
<text text-anchor="middle" x="1666.5" y="-14.8" font-family="Times,serif" font-size="14.00" fill="#ff0000">exegis.introduction.IntroductionException</text>
</g>
<!-- 10 -->
<g id="node11" class="node">
<title>10</title>
<polygon fill="none" stroke="#000000" points="523.5,-88.5 523.5,-124.5 657.5,-124.5 657.5,-88.5 523.5,-88.5"/>
<text text-anchor="middle" x="590.5" y="-102.8" font-family="Times,serif" font-size="14.00" fill="#000000">exegis.title.Title</text>
</g>
<!-- 10&#45;&gt;3 -->
<g id="edge4" class="edge">
<title>10&#45;&gt;3</title>
<path fill="none" stroke="#000000" d="M564.8141,-124.6024C551.2125,-134.1883 534.3285,-146.0875 519.6388,-156.4403"/>
<polygon fill="none" stroke="#000000" points="517.4424,-153.7063 511.2846,-162.328 521.4749,-159.4281 517.4424,-153.7063"/>
</g>
<!-- 11 -->
<g id="node12" class="node">
<title>11</title>
<polygon fill="none" stroke="#000000" points="1845.5,-.5 1845.5,-36.5 2051.5,-36.5 2051.5,-.5 1845.5,-.5"/>
<text text-anchor="middle" x="1948.5" y="-14.8" font-family="Times,serif" font-size="14.00" fill="#ff0000">exegis.title.TitleException</text>
</g>
</g>
</svg>
