<?xml version="1.0" encoding="UTF-8" standalone="no"?>
<!DOCTYPE svg PUBLIC "-//W3C//DTD SVG 1.1//EN"
 "http://www.w3.org/Graphics/SVG/1.1/DTD/svg11.dtd">
<!-- Generated by graphviz version 2.40.1 (20161225.0304)
 -->
<!-- Title: classes_hippocratic Pages: 1 -->
<svg width="2350pt" height="207pt"
 viewBox="0.00 0.00 2350.00 207.00" xmlns="http://www.w3.org/2000/svg" xmlns:xlink="http://www.w3.org/1999/xlink">
<g id="graph0" class="graph" transform="scale(1 1) rotate(0) translate(4 203)">
<title>classes_hippocratic</title>
<polygon fill="#ffffff" stroke="transparent" points="-4,4 -4,-203 2346,-203 2346,4 -4,4"/>
<!-- 0 -->
<g id="node1" class="node">
<title>0</title>
<polygon fill="none" stroke="#000000" points=".5,-.5 .5,-36.5 297.5,-36.5 297.5,-.5 .5,-.5"/>
<text text-anchor="middle" x="149" y="-14.8" font-family="Times,serif" font-size="14.00" fill="#ff0000">hippocratic.analysis.AnalysisException</text>
</g>
<!-- 1 -->
<g id="node2" class="node">
<title>1</title>
<polygon fill="none" stroke="#000000" points="316,-.5 316,-36.5 754,-36.5 754,-.5 316,-.5"/>
<text text-anchor="middle" x="535" y="-14.8" font-family="Times,serif" font-size="14.00" fill="#ff0000">hippocratic.aphorisms_to_xml.AphorismsToXMLException</text>
</g>
<!-- 2 -->
<g id="node3" class="node">
<title>2</title>
<polygon fill="none" stroke="#000000" points="748.5,-88.5 748.5,-124.5 1041.5,-124.5 1041.5,-88.5 748.5,-88.5"/>
<text text-anchor="middle" x="895" y="-102.8" font-family="Times,serif" font-size="14.00" fill="#000000">hippocratic.aphorisms_to_xml.Process</text>
</g>
<!-- 3 -->
<g id="node4" class="node">
<title>3</title>
<polygon fill="none" stroke="#000000" points="391,-162.5 391,-198.5 653,-198.5 653,-162.5 391,-162.5"/>
<text text-anchor="middle" x="522" y="-176.8" font-family="Times,serif" font-size="14.00" fill="#000000">hippocratic.baseclass.Hippocratic</text>
</g>
<!-- 2&#45;&gt;3 -->
<g id="edge1" class="edge">
<title>2&#45;&gt;3</title>
<path fill="none" stroke="#000000" d="M804.2309,-124.5078C749.4069,-135.3844 679.4407,-149.2651 622.8877,-160.4847"/>
<polygon fill="none" stroke="#000000" points="621.9801,-157.0965 612.8524,-162.4757 623.3424,-163.9627 621.9801,-157.0965"/>
</g>
<!-- 4 -->
<g id="node5" class="node">
<title>4</title>
<polygon fill="none" stroke="#000000" points="1036,-.5 1036,-36.5 1370,-36.5 1370,-.5 1036,-.5"/>
<text text-anchor="middle" x="1203" y="-14.8" font-family="Times,serif" font-size="14.00" fill="#ff0000">hippocratic.baseclass.HippocraticException</text>
</g>
<!-- 5 -->
<g id="node6" class="node">
<title>5</title>
<polygon fill="none" stroke="#000000" points="0,-88.5 0,-124.5 238,-124.5 238,-88.5 0,-88.5"/>
<text text-anchor="middle" x="119" y="-102.8" font-family="Times,serif" font-size="14.00" fill="#000000">hippocratic.footnotes.Footnote</text>
</g>
<!-- 5&#45;&gt;3 -->
<g id="edge2" class="edge">
<title>5&#45;&gt;3</title>
<path fill="none" stroke="#000000" d="M217.0696,-124.5078C276.5482,-135.4295 352.5228,-149.3801 413.7563,-160.624"/>
<polygon fill="none" stroke="#000000" points="413.3727,-164.112 423.8404,-162.4757 414.637,-157.2271 413.3727,-164.112"/>
</g>
<!-- 6 -->
<g id="node7" class="node">
<title>6</title>
<polygon fill="none" stroke="#000000" points="772.5,-.5 772.5,-36.5 1017.5,-36.5 1017.5,-.5 772.5,-.5"/>
<text text-anchor="middle" x="895" y="-14.8" font-family="Times,serif" font-size="14.00" fill="#000000">hippocratic.footnotes.Footnotes</text>
</g>
<!-- 6&#45;&gt;2 -->
<g id="edge5" class="edge">
<title>6&#45;&gt;2</title>
<path fill="none" stroke="#000000" d="M895,-36.7337C895,-48.0609 895,-62.9058 895,-75.9891"/>
<polygon fill="#000000" stroke="#000000" points="895.0001,-76.2897 899,-82.2897 895,-88.2897 891,-82.2897 895.0001,-76.2897"/>
<text text-anchor="middle" x="949.5" y="-58.8" font-family="Times,serif" font-size="14.00" fill="#00ff00">_footnotes_app</text>
</g>
<!-- 7 -->
<g id="node8" class="node">
<title>7</title>
<polygon fill="none" stroke="#000000" points="1388.5,-.5 1388.5,-36.5 1705.5,-36.5 1705.5,-.5 1388.5,-.5"/>
<text text-anchor="middle" x="1547" y="-14.8" font-family="Times,serif" font-size="14.00" fill="#ff0000">hippocratic.footnotes.FootnotesException</text>
</g>
<!-- 8 -->
<g id="node9" class="node">
<title>8</title>
<polygon fill="none" stroke="#000000" points="256,-88.5 256,-124.5 542,-124.5 542,-88.5 256,-88.5"/>
<text text-anchor="middle" x="399" y="-102.8" font-family="Times,serif" font-size="14.00" fill="#000000">hippocratic.introduction.Introduction</text>
</g>
<!-- 8&#45;&gt;3 -->
<g id="edge3" class="edge">
<title>8&#45;&gt;3</title>
<path fill="none" stroke="#000000" d="M429.0892,-124.6024C445.3203,-134.3675 465.5416,-146.5332 482.9711,-157.0192"/>
<polygon fill="none" stroke="#000000" points="481.422,-160.1718 491.7952,-162.328 485.0307,-154.1737 481.422,-160.1718"/>
</g>
<!-- 9 -->
<g id="node10" class="node">
<title>9</title>
<polygon fill="none" stroke="#000000" points="1724,-.5 1724,-36.5 2082,-36.5 2082,-.5 1724,-.5"/>
<text text-anchor="middle" x="1903" y="-14.8" font-family="Times,serif" font-size="14.00" fill="#ff0000">hippocratic.introduction.IntroductionException</text>
</g>
<!-- 10 -->
<g id="node11" class="node">
<title>10</title>
<polygon fill="none" stroke="#000000" points="560,-88.5 560,-124.5 730,-124.5 730,-88.5 560,-88.5"/>
<text text-anchor="middle" x="645" y="-102.8" font-family="Times,serif" font-size="14.00" fill="#000000">hippocratic.title.Title</text>
</g>
<!-- 10&#45;&gt;3 -->
<g id="edge4" class="edge">
<title>10&#45;&gt;3</title>
<path fill="none" stroke="#000000" d="M614.9108,-124.6024C598.6797,-134.3675 578.4584,-146.5332 561.0289,-157.0192"/>
<polygon fill="none" stroke="#000000" points="558.9693,-154.1737 552.2048,-162.328 562.578,-160.1718 558.9693,-154.1737"/>
</g>
<!-- 11 -->
<g id="node12" class="node">
<title>11</title>
<polygon fill="none" stroke="#000000" points="2100,-.5 2100,-36.5 2342,-36.5 2342,-.5 2100,-.5"/>
<text text-anchor="middle" x="2221" y="-14.8" font-family="Times,serif" font-size="14.00" fill="#ff0000">hippocratic.title.TitleException</text>
</g>
</g>
</svg>
