<?xml version="1.0" encoding="UTF-8" standalone="no"?>
<!DOCTYPE svg PUBLIC "-//W3C//DTD SVG 1.1//EN"
 "http://www.w3.org/Graphics/SVG/1.1/DTD/svg11.dtd">
<!-- Generated by graphviz version 2.40.1 (20161225.0304)
 -->
<!-- Title: packages_exegis Pages: 1 -->
<svg width="511pt" height="404pt"
 viewBox="0.00 0.00 510.88 404.00" xmlns="http://www.w3.org/2000/svg" xmlns:xlink="http://www.w3.org/1999/xlink">
<g id="graph0" class="graph" transform="scale(1 1) rotate(0) translate(4 400)">
<title>packages_exegis</title>
<polygon fill="#ffffff" stroke="transparent" points="-4,4 -4,-400 506.8847,-400 506.8847,4 -4,4"/>
<!-- 0 -->
<g id="node1" class="node">
<title>0</title>
<polygon fill="none" stroke="#000000" points="131.8847,-36 33.8847,-36 33.8847,0 131.8847,0 131.8847,-36"/>
<text text-anchor="middle" x="82.8847" y="-14.3" font-family="Times,serif" font-size="14.00" fill="#000000">exegis</text>
</g>
<!-- 1 -->
<g id="node2" class="node">
<title>1</title>
<polygon fill="none" stroke="#000000" points="408.3847,-252 247.3847,-252 247.3847,-216 408.3847,-216 408.3847,-252"/>
<text text-anchor="middle" x="327.8847" y="-230.3" font-family="Times,serif" font-size="14.00" fill="#000000">exegis.analysis</text>
</g>
<!-- 3 -->
<g id="node4" class="node">
<title>3</title>
<polygon fill="none" stroke="#000000" points="304.8847,-324 132.8847,-324 132.8847,-288 304.8847,-288 304.8847,-324"/>
<text text-anchor="middle" x="218.8847" y="-302.3" font-family="Times,serif" font-size="14.00" fill="#000000">exegis.baseclass</text>
</g>
<!-- 1&#45;&gt;3 -->
<g id="edge1" class="edge">
<title>1&#45;&gt;3</title>
<path fill="none" stroke="#000000" d="M300.3794,-252.1686C286.5667,-261.2926 269.6591,-272.461 254.8318,-282.2551"/>
<polygon fill="#000000" stroke="#000000" points="246.3812,-287.8372 252.245,-278.5707 250.5532,-285.0813 254.7252,-282.3255 254.7252,-282.3255 254.7252,-282.3255 250.5532,-285.0813 257.2055,-286.0803 246.3812,-287.8372 246.3812,-287.8372"/>
</g>
<!-- 2 -->
<g id="node3" class="node">
<title>2</title>
<polygon fill="none" stroke="#000000" points="335.3847,-108 102.3847,-108 102.3847,-72 335.3847,-72 335.3847,-108"/>
<text text-anchor="middle" x="218.8847" y="-86.3" font-family="Times,serif" font-size="14.00" fill="#000000">exegis.aphorisms_to_xml</text>
</g>
<!-- 2&#45;&gt;1 -->
<g id="edge2" class="edge">
<title>2&#45;&gt;1</title>
<path fill="none" stroke="#000000" d="M278.3746,-108.0783C295.548,-116.2681 312.4504,-127.8525 322.8847,-144 334.5829,-162.1034 335.1407,-186.779 333.1593,-205.7144"/>
<polygon fill="#000000" stroke="#000000" points="331.8084,-215.8356 328.671,-205.3281 332.47,-210.8795 333.1315,-205.9235 333.1315,-205.9235 333.1315,-205.9235 332.47,-210.8795 337.5919,-206.5189 331.8084,-215.8356 331.8084,-215.8356"/>
</g>
<!-- 2&#45;&gt;3 -->
<g id="edge3" class="edge">
<title>2&#45;&gt;3</title>
<path fill="none" stroke="#000000" d="M159.1136,-108.0509C81.6978,-134.509 -37.7777,-187.7201 11.8847,-252 26.0616,-270.3496 75.657,-283.646 122.7462,-292.4531"/>
<polygon fill="#000000" stroke="#000000" points="132.7428,-294.2646 122.1007,-296.9094 127.823,-293.373 122.9031,-292.4815 122.9031,-292.4815 122.9031,-292.4815 127.823,-293.373 123.7055,-288.0536 132.7428,-294.2646 132.7428,-294.2646"/>
</g>
<!-- 5 -->
<g id="node6" class="node">
<title>5</title>
<polygon fill="none" stroke="#000000" points="190.8847,-252 20.8847,-252 20.8847,-216 190.8847,-216 190.8847,-252"/>
<text text-anchor="middle" x="105.8847" y="-230.3" font-family="Times,serif" font-size="14.00" fill="#000000">exegis.footnotes</text>
</g>
<!-- 2&#45;&gt;5 -->
<g id="edge4" class="edge">
<title>2&#45;&gt;5</title>
<path fill="none" stroke="#000000" d="M159.4302,-108.0382C142.0171,-116.2407 124.755,-127.8426 113.8847,-144 101.8242,-161.9264 100.4257,-186.6155 101.7074,-205.6011"/>
<polygon fill="#000000" stroke="#000000" points="102.6778,-215.7539 97.2467,-206.2275 102.202,-210.7766 101.7263,-205.7993 101.7263,-205.7993 101.7263,-205.7993 102.202,-210.7766 106.2059,-205.3711 102.6778,-215.7539 102.6778,-215.7539"/>
</g>
<!-- 6 -->
<g id="node7" class="node">
<title>6</title>
<polygon fill="none" stroke="#000000" points="314.3847,-180 123.3847,-180 123.3847,-144 314.3847,-144 314.3847,-180"/>
<text text-anchor="middle" x="218.8847" y="-158.3" font-family="Times,serif" font-size="14.00" fill="#000000">exegis.introduction</text>
</g>
<!-- 2&#45;&gt;6 -->
<g id="edge5" class="edge">
<title>2&#45;&gt;6</title>
<path fill="none" stroke="#000000" d="M218.8847,-108.1686C218.8847,-115.869 218.8847,-125.0257 218.8847,-133.5834"/>
<polygon fill="#000000" stroke="#000000" points="218.8847,-143.5867 214.3848,-133.5867 218.8848,-138.5867 218.8848,-133.5867 218.8848,-133.5867 218.8848,-133.5867 218.8848,-138.5867 223.3848,-133.5868 218.8847,-143.5867 218.8847,-143.5867"/>
</g>
<!-- 8 -->
<g id="node9" class="node">
<title>8</title>
<polygon fill="none" stroke="#000000" points="502.8847,-180 370.8847,-180 370.8847,-144 502.8847,-144 502.8847,-180"/>
<text text-anchor="middle" x="436.8847" y="-158.3" font-family="Times,serif" font-size="14.00" fill="#000000">exegis.title</text>
</g>
<!-- 2&#45;&gt;8 -->
<g id="edge6" class="edge">
<title>2&#45;&gt;8</title>
<path fill="none" stroke="#000000" d="M273.6139,-108.0757C303.675,-118.0041 341.1298,-130.3745 372.5801,-140.7618"/>
<polygon fill="#000000" stroke="#000000" points="382.133,-143.9169 371.2262,-145.0536 377.3852,-142.3488 372.6375,-140.7807 372.6375,-140.7807 372.6375,-140.7807 377.3852,-142.3488 374.0488,-136.5077 382.133,-143.9169 382.133,-143.9169"/>
</g>
<!-- 4 -->
<g id="node5" class="node">
<title>4</title>
<polygon fill="none" stroke="#000000" points="285.8847,-396 151.8847,-396 151.8847,-360 285.8847,-360 285.8847,-396"/>
<text text-anchor="middle" x="218.8847" y="-374.3" font-family="Times,serif" font-size="14.00" fill="#000000">exegis.conf</text>
</g>
<!-- 3&#45;&gt;4 -->
<g id="edge7" class="edge">
<title>3&#45;&gt;4</title>
<path fill="none" stroke="#000000" d="M218.8847,-324.1686C218.8847,-331.869 218.8847,-341.0257 218.8847,-349.5834"/>
<polygon fill="#000000" stroke="#000000" points="218.8847,-359.5867 214.3848,-349.5867 218.8848,-354.5867 218.8848,-349.5867 218.8848,-349.5867 218.8848,-349.5867 218.8848,-354.5867 223.3848,-349.5868 218.8847,-359.5867 218.8847,-359.5867"/>
</g>
<!-- 5&#45;&gt;3 -->
<g id="edge8" class="edge">
<title>5&#45;&gt;3</title>
<path fill="none" stroke="#000000" d="M134.3994,-252.1686C148.719,-261.2926 166.2471,-272.461 181.6185,-282.2551"/>
<polygon fill="#000000" stroke="#000000" points="190.3792,-287.8372 179.5275,-286.2586 186.1624,-285.1504 181.9456,-282.4635 181.9456,-282.4635 181.9456,-282.4635 186.1624,-285.1504 184.3638,-278.6684 190.3792,-287.8372 190.3792,-287.8372"/>
</g>
<!-- 6&#45;&gt;1 -->
<g id="edge9" class="edge">
<title>6&#45;&gt;1</title>
<path fill="none" stroke="#000000" d="M246.39,-180.1686C260.2027,-189.2926 277.1104,-200.461 291.9377,-210.2551"/>
<polygon fill="#000000" stroke="#000000" points="300.3882,-215.8372 289.564,-214.0803 296.2162,-213.0813 292.0442,-210.3255 292.0442,-210.3255 292.0442,-210.3255 296.2162,-213.0813 294.5245,-206.5707 300.3882,-215.8372 300.3882,-215.8372"/>
</g>
<!-- 6&#45;&gt;3 -->
<g id="edge10" class="edge">
<title>6&#45;&gt;3</title>
<path fill="none" stroke="#000000" d="M218.8847,-180.2377C218.8847,-204.799 218.8847,-248.7526 218.8847,-277.6459"/>
<polygon fill="#000000" stroke="#000000" points="218.8847,-287.9104 214.3848,-277.9103 218.8848,-282.9104 218.8848,-277.9104 218.8848,-277.9104 218.8848,-277.9104 218.8848,-282.9104 223.3848,-277.9104 218.8847,-287.9104 218.8847,-287.9104"/>
</g>
<!-- 7 -->
<g id="node8" class="node">
<title>7</title>
<polygon fill="none" stroke="#000000" points="287.8847,-36 149.8847,-36 149.8847,0 287.8847,0 287.8847,-36"/>
<text text-anchor="middle" x="218.8847" y="-14.3" font-family="Times,serif" font-size="14.00" fill="#000000">exegis.main</text>
</g>
<!-- 7&#45;&gt;2 -->
<g id="edge11" class="edge">
<title>7&#45;&gt;2</title>
<path fill="none" stroke="#000000" d="M218.8847,-36.1686C218.8847,-43.869 218.8847,-53.0257 218.8847,-61.5834"/>
<polygon fill="#000000" stroke="#000000" points="218.8847,-71.5867 214.3848,-61.5867 218.8848,-66.5867 218.8848,-61.5867 218.8848,-61.5867 218.8848,-61.5867 218.8848,-66.5867 223.3848,-61.5868 218.8847,-71.5867 218.8847,-71.5867"/>
</g>
<!-- 8&#45;&gt;1 -->
<g id="edge12" class="edge">
<title>8&#45;&gt;1</title>
<path fill="none" stroke="#000000" d="M409.3794,-180.1686C395.5667,-189.2926 378.6591,-200.461 363.8318,-210.2551"/>
<polygon fill="#000000" stroke="#000000" points="355.3812,-215.8372 361.245,-206.5707 359.5532,-213.0813 363.7252,-210.3255 363.7252,-210.3255 363.7252,-210.3255 359.5532,-213.0813 366.2055,-214.0803 355.3812,-215.8372 355.3812,-215.8372"/>
</g>
<!-- 8&#45;&gt;3 -->
<g id="edge13" class="edge">
<title>8&#45;&gt;3</title>
<path fill="none" stroke="#000000" d="M438.0021,-180.0555C438.2216,-200.2491 435.3309,-232.6545 416.8847,-252 402.1715,-267.4305 357.9424,-280.2354 315.0098,-289.4972"/>
<polygon fill="#000000" stroke="#000000" points="305.0152,-291.5966 313.8766,-285.1369 309.9085,-290.5687 314.8017,-289.5408 314.8017,-289.5408 314.8017,-289.5408 309.9085,-290.5687 315.7268,-293.9447 305.0152,-291.5966 305.0152,-291.5966"/>
</g>
</g>
</svg>
