<?xml version="1.0" encoding="UTF-8" standalone="no"?>
<!DOCTYPE svg PUBLIC "-//W3C//DTD SVG 1.1//EN"
 "http://www.w3.org/Graphics/SVG/1.1/DTD/svg11.dtd">
<!-- Generated by graphviz version 2.40.1 (20161225.0304)
 -->
<!-- Title: packages_exegis Pages: 1 -->
<svg width="420pt" height="404pt"
 viewBox="0.00 0.00 420.10 404.00" xmlns="http://www.w3.org/2000/svg" xmlns:xlink="http://www.w3.org/1999/xlink">
<g id="graph0" class="graph" transform="scale(1 1) rotate(0) translate(4 400)">
<title>packages_exegis</title>
<polygon fill="#ffffff" stroke="transparent" points="-4,4 -4,-400 416.0953,-400 416.0953,4 -4,4"/>
<!-- 0 -->
<g id="node1" class="node">
<title>0</title>
<polygon fill="none" stroke="#000000" points="113.0953,-36 51.0953,-36 51.0953,0 113.0953,0 113.0953,-36"/>
<text text-anchor="middle" x="82.0953" y="-14.3" font-family="Times,serif" font-size="14.00" fill="#000000">exegis</text>
</g>
<!-- 1 -->
<g id="node2" class="node">
<title>1</title>
<polygon fill="none" stroke="#000000" points="335.5953,-252 210.5953,-252 210.5953,-216 335.5953,-216 335.5953,-252"/>
<text text-anchor="middle" x="273.0953" y="-230.3" font-family="Times,serif" font-size="14.00" fill="#000000">exegis.analysis</text>
</g>
<!-- 3 -->
<g id="node4" class="node">
<title>3</title>
<polygon fill="none" stroke="#000000" points="250.0953,-324 114.0953,-324 114.0953,-288 250.0953,-288 250.0953,-324"/>
<text text-anchor="middle" x="182.0953" y="-302.3" font-family="Times,serif" font-size="14.00" fill="#000000">exegis.baseclass</text>
</g>
<!-- 1&#45;&gt;3 -->
<g id="edge1" class="edge">
<title>1&#45;&gt;3</title>
<path fill="none" stroke="#000000" d="M250.1322,-252.1686C238.9238,-261.0368 225.2744,-271.8363 213.1514,-281.4282"/>
<polygon fill="#000000" stroke="#000000" points="205.0511,-287.8372 210.1012,-278.1033 208.9722,-284.7347 212.8934,-281.6323 212.8934,-281.6323 212.8934,-281.6323 208.9722,-284.7347 215.6855,-285.1613 205.0511,-287.8372 205.0511,-287.8372"/>
</g>
<!-- 2 -->
<g id="node3" class="node">
<title>2</title>
<polygon fill="none" stroke="#000000" points="280.5953,-108 83.5953,-108 83.5953,-72 280.5953,-72 280.5953,-108"/>
<text text-anchor="middle" x="182.0953" y="-86.3" font-family="Times,serif" font-size="14.00" fill="#000000">exegis.aphorisms_to_xml</text>
</g>
<!-- 2&#45;&gt;1 -->
<g id="edge2" class="edge">
<title>2&#45;&gt;1</title>
<path fill="none" stroke="#000000" d="M227.6488,-108.0483C243.1483,-116.5617 258.8716,-128.3583 268.0953,-144 278.977,-162.4533 279.6506,-186.9066 277.922,-205.6663"/>
<polygon fill="#000000" stroke="#000000" points="276.725,-215.6963 273.4418,-205.2335 277.3175,-210.7315 277.9101,-205.7667 277.9101,-205.7667 277.9101,-205.7667 277.3175,-210.7315 282.3783,-206.3 276.725,-215.6963 276.725,-215.6963"/>
</g>
<!-- 2&#45;&gt;3 -->
<g id="edge3" class="edge">
<title>2&#45;&gt;3</title>
<path fill="none" stroke="#000000" d="M135.6644,-108.0785C71.2259,-135.8802 -32.72,-192.2155 11.0953,-252 22.7168,-267.8571 64.4914,-281.2112 103.8386,-290.6726"/>
<polygon fill="#000000" stroke="#000000" points="113.77,-292.9933 103.0083,-295.0997 108.9011,-291.8555 104.0323,-290.7178 104.0323,-290.7178 104.0323,-290.7178 108.9011,-291.8555 105.0563,-286.3358 113.77,-292.9933 113.77,-292.9933"/>
</g>
<!-- 5 -->
<g id="node6" class="node">
<title>5</title>
<polygon fill="none" stroke="#000000" points="154.0953,-252 20.0953,-252 20.0953,-216 154.0953,-216 154.0953,-252"/>
<text text-anchor="middle" x="87.0953" y="-230.3" font-family="Times,serif" font-size="14.00" fill="#000000">exegis.footnotes</text>
</g>
<!-- 2&#45;&gt;5 -->
<g id="edge4" class="edge">
<title>2&#45;&gt;5</title>
<path fill="none" stroke="#000000" d="M136.302,-108.1024C120.6558,-116.6222 104.6969,-128.4089 95.0953,-144 83.7658,-162.3971 82.3116,-187.0504 83.386,-205.9025"/>
<polygon fill="#000000" stroke="#000000" points="84.2256,-215.9711 78.9101,-206.3796 83.8101,-210.9884 83.3946,-206.0057 83.3946,-206.0057 83.3946,-206.0057 83.8101,-210.9884 87.879,-205.6317 84.2256,-215.9711 84.2256,-215.9711"/>
</g>
<!-- 6 -->
<g id="node7" class="node">
<title>6</title>
<polygon fill="none" stroke="#000000" points="259.5953,-180 104.5953,-180 104.5953,-144 259.5953,-144 259.5953,-180"/>
<text text-anchor="middle" x="182.0953" y="-158.3" font-family="Times,serif" font-size="14.00" fill="#000000">exegis.introduction</text>
</g>
<!-- 2&#45;&gt;6 -->
<g id="edge5" class="edge">
<title>2&#45;&gt;6</title>
<path fill="none" stroke="#000000" d="M182.0953,-108.1686C182.0953,-115.869 182.0953,-125.0257 182.0953,-133.5834"/>
<polygon fill="#000000" stroke="#000000" points="182.0953,-143.5867 177.5954,-133.5867 182.0954,-138.5867 182.0954,-133.5867 182.0954,-133.5867 182.0954,-133.5867 182.0954,-138.5867 186.5954,-133.5868 182.0953,-143.5867 182.0953,-143.5867"/>
</g>
<!-- 8 -->
<g id="node9" class="node">
<title>8</title>
<polygon fill="none" stroke="#000000" points="412.0953,-180 316.0953,-180 316.0953,-144 412.0953,-144 412.0953,-180"/>
<text text-anchor="middle" x="364.0953" y="-158.3" font-family="Times,serif" font-size="14.00" fill="#000000">exegis.title</text>
</g>
<!-- 2&#45;&gt;8 -->
<g id="edge6" class="edge">
<title>2&#45;&gt;8</title>
<path fill="none" stroke="#000000" d="M228.0216,-108.1686C252.6876,-117.9266 283.2645,-130.023 309.1814,-140.2758"/>
<polygon fill="#000000" stroke="#000000" points="318.4993,-143.962 307.5451,-144.4678 313.8499,-142.1227 309.2005,-140.2833 309.2005,-140.2833 309.2005,-140.2833 313.8499,-142.1227 310.8559,-136.0988 318.4993,-143.962 318.4993,-143.962"/>
</g>
<!-- 4 -->
<g id="node5" class="node">
<title>4</title>
<polygon fill="none" stroke="#000000" points="231.0953,-396 133.0953,-396 133.0953,-360 231.0953,-360 231.0953,-396"/>
<text text-anchor="middle" x="182.0953" y="-374.3" font-family="Times,serif" font-size="14.00" fill="#000000">exegis.conf</text>
</g>
<!-- 3&#45;&gt;4 -->
<g id="edge7" class="edge">
<title>3&#45;&gt;4</title>
<path fill="none" stroke="#000000" d="M182.0953,-324.1686C182.0953,-331.869 182.0953,-341.0257 182.0953,-349.5834"/>
<polygon fill="#000000" stroke="#000000" points="182.0953,-359.5867 177.5954,-349.5867 182.0954,-354.5867 182.0954,-349.5867 182.0954,-349.5867 182.0954,-349.5867 182.0954,-354.5867 186.5954,-349.5868 182.0953,-359.5867 182.0953,-359.5867"/>
</g>
<!-- 5&#45;&gt;3 -->
<g id="edge8" class="edge">
<title>5&#45;&gt;3</title>
<path fill="none" stroke="#000000" d="M111.0678,-252.1686C122.8814,-261.1221 137.2925,-272.0442 150.0388,-281.7045"/>
<polygon fill="#000000" stroke="#000000" points="158.1305,-287.8372 147.4427,-285.3833 154.1456,-284.8171 150.1608,-281.7969 150.1608,-281.7969 150.1608,-281.7969 154.1456,-284.8171 152.8789,-278.2106 158.1305,-287.8372 158.1305,-287.8372"/>
</g>
<!-- 6&#45;&gt;1 -->
<g id="edge9" class="edge">
<title>6&#45;&gt;1</title>
<path fill="none" stroke="#000000" d="M205.0585,-180.1686C216.2668,-189.0368 229.9162,-199.8363 242.0393,-209.4282"/>
<polygon fill="#000000" stroke="#000000" points="250.1395,-215.8372 239.5051,-213.1613 246.2184,-212.7347 242.2973,-209.6323 242.2973,-209.6323 242.2973,-209.6323 246.2184,-212.7347 245.0895,-206.1033 250.1395,-215.8372 250.1395,-215.8372"/>
</g>
<!-- 6&#45;&gt;3 -->
<g id="edge10" class="edge">
<title>6&#45;&gt;3</title>
<path fill="none" stroke="#000000" d="M182.0953,-180.2377C182.0953,-204.799 182.0953,-248.7526 182.0953,-277.6459"/>
<polygon fill="#000000" stroke="#000000" points="182.0953,-287.9104 177.5954,-277.9103 182.0954,-282.9104 182.0954,-277.9104 182.0954,-277.9104 182.0954,-277.9104 182.0954,-282.9104 186.5954,-277.9104 182.0953,-287.9104 182.0953,-287.9104"/>
</g>
<!-- 7 -->
<g id="node8" class="node">
<title>7</title>
<polygon fill="none" stroke="#000000" points="233.0953,-36 131.0953,-36 131.0953,0 233.0953,0 233.0953,-36"/>
<text text-anchor="middle" x="182.0953" y="-14.3" font-family="Times,serif" font-size="14.00" fill="#000000">exegis.main</text>
</g>
<!-- 7&#45;&gt;2 -->
<g id="edge11" class="edge">
<title>7&#45;&gt;2</title>
<path fill="none" stroke="#000000" d="M182.0953,-36.1686C182.0953,-43.869 182.0953,-53.0257 182.0953,-61.5834"/>
<polygon fill="#000000" stroke="#000000" points="182.0953,-71.5867 177.5954,-61.5867 182.0954,-66.5867 182.0954,-61.5867 182.0954,-61.5867 182.0954,-61.5867 182.0954,-66.5867 186.5954,-61.5868 182.0953,-71.5867 182.0953,-71.5867"/>
</g>
<!-- 8&#45;&gt;1 -->
<g id="edge12" class="edge">
<title>8&#45;&gt;1</title>
<path fill="none" stroke="#000000" d="M341.1322,-180.1686C329.9238,-189.0368 316.2744,-199.8363 304.1514,-209.4282"/>
<polygon fill="#000000" stroke="#000000" points="296.0511,-215.8372 301.1012,-206.1033 299.9722,-212.7347 303.8934,-209.6323 303.8934,-209.6323 303.8934,-209.6323 299.9722,-212.7347 306.6855,-213.1613 296.0511,-215.8372 296.0511,-215.8372"/>
</g>
<!-- 8&#45;&gt;3 -->
<g id="edge13" class="edge">
<title>8&#45;&gt;3</title>
<path fill="none" stroke="#000000" d="M365.0159,-180.2336C365.0169,-200.2843 361.8904,-232.2691 344.0953,-252 332.1624,-265.2311 295.7211,-277.9421 260.417,-287.7045"/>
<polygon fill="#000000" stroke="#000000" points="250.5109,-290.3778 258.993,-283.4278 255.3382,-289.0751 260.1655,-287.7723 260.1655,-287.7723 260.1655,-287.7723 255.3382,-289.0751 261.338,-292.1169 250.5109,-290.3778 250.5109,-290.3778"/>
</g>
</g>
</svg>
